<?xml version="1.0" standalone="no"?>
<!DOCTYPE svg PUBLIC "-//W3C//DTD SVG 20010904//EN"
 "http://www.w3.org/TR/2001/REC-SVG-20010904/DTD/svg10.dtd">
<svg version="1.0" xmlns="http://www.w3.org/2000/svg"
 width="512.000000pt" height="512.000000pt" viewBox="0 0 512 512"
 preserveAspectRatio="xMidYMid meet">
  <g fill="#000000" stroke="none" transform="scale(21.333333)">
    <!-- Open media gallery icon scaled from 24x24 to 512x512 -->
    <path d="M19 15V5a4.004 4.004 0 0 0-4-4H5a4.004 4.004 0 0 0-4 4v10a4.004 4.004 0 0 0 4 4h10a4.004 4.004 0 0 0 4-4ZM3 15V5a2.002 2.002 0 0 1 2-2h10a2.002 2.002 0 0 1 2 2v10a2.002 2.002 0 0 1-2 2H5a2.002 2.002 0 0 1-2-2Zm18.862-8.773A.501.501 0 0 0 21 6.57v8.431a6 6 0 0 1-6 6H6.58a.504.504 0 0 0-.35.863A3.944 3.944 0 0 0 9 23h6a8 8 0 0 0 8-8V9a3.95 3.95 0 0 0-1.138-2.773Z" fill-rule="evenodd"/>
  </g>
</svg>
