<?xml version="1.0" standalone="no"?>
<!DOCTYPE svg PUBLIC "-//W3C//DTD SVG 20010904//EN"
 "http://www.w3.org/TR/2001/REC-SVG-20010904/DTD/svg10.dtd">
<svg version="1.0" xmlns="http://www.w3.org/2000/svg"
 width="512.000000pt" height="512.000000pt" viewBox="0 0 512.000000 512.000000"
 preserveAspectRatio="xMidYMid meet">

<g transform="translate(0.000000,512.000000) scale(0.100000,-0.100000)"
fill="#000000" stroke="none">
<path d="M2160 4683 c-25 -1 -117 -7 -205 -13 -234 -16 -593 -58 -679 -80
-395 -101 -688 -414 -761 -814 -17 -92 -48 -376 -67 -611 -17 -214 -17 -996 0
-1210 19 -235 50 -519 67 -611 79 -430 420 -764 850 -833 97 -15 398 -47 590
-63 215 -17 996 -17 1210 0 235 19 519 50 611 67 424 78 751 405 829 829 17
92 48 376 67 611 8 100 13 327 13 605 0 451 -6 577 -46 950 -24 223 -41 323
-73 418 -104 303 -355 549 -662 645 -131 41 -482 84 -878 107 -159 9 -749 11
-866 3z m986 -438 c361 -27 550 -52 650 -85 161 -54 308 -200 364 -363 68
-201 122 -1004 101 -1514 -19 -443 -60 -840 -101 -960 -56 -162 -201 -307
-363 -363 -201 -68 -1008 -122 -1511 -101 -436 18 -812 57 -941 96 -185 56
-331 201 -390 386 -57 183 -114 959 -101 1379 13 377 50 830 82 989 53 257
244 438 510 481 154 26 579 62 859 74 153 7 649 -5 841 -19z"/>
<path d="M2513 3621 c-51 -13 -96 -44 -128 -90 l-30 -43 -5 -356 -5 -357 -357
-5 -356 -5 -44 -30 c-123 -87 -123 -263 0 -350 l44 -30 356 -5 357 -5 5 -357
5 -356 30 -44 c87 -123 263 -123 350 0 l30 44 5 356 5 357 357 5 356 5 44 30
c123 87 123 263 0 350 l-44 30 -356 5 -357 5 -5 357 -5 356 -30 44 c-50 70
-144 108 -222 89z"/>
</g>
</svg>
