<svg width="103"
    height="32px"
xmlns="http://www.w3.org/2000/svg" version="1.0" preserveAspectRatio="xMidYMid meet" viewBox="96.22 356.07 853.78 300.07">

<g transform="translate(0.000000,1024.000000) scale(0.100000,-0.100000)" fill="#000000" stroke="none">
<path d="M6333 6670 c-28 -11 -52 -49 -64 -97 -22 -93 -59 -413 -59 -506 0 -120 0 -119 -119 -238 -127 -128 -208 -257 -271 -434 -134 -377 -115 -716 57 -1020 67 -117 190 -279 280 -366 169 -165 391 -271 663 -315 112 -18 365 -21 461 -5 160 26 362 104 476 182 109 75 323 309 372 407 25 51 34 102 20 118 -27 32 -60 15 -163 -84 -219 -211 -366 -306 -571 -368 -81 -25 -106 -28 -240 -28 -169 -1 -229 12 -349 72 -112 55 -231 182 -300 319 -118 236 -124 592 -15 918 70 211 159 355 310 500 160 155 283 225 483 275 161 41 202 42 234 5 23 -27 24 -34 20 -119 -4 -76 -10 -106 -41 -181 -42 -102 -47 -141 -17 -150 33 -11 98 14 162 63 125 94 172 189 172 347 1 85 -2 107 -22 147 -50 102 -162 166 -308 175 -91 6 -180 -9 -362 -62 l-117 -34 -115 118 c-122 125 -228 210 -348 280 -126 73 -190 96 -229 81z m185 -317 c70 -44 194 -147 240 -200 l51 -59 -88 -67 c-49 -37 -121 -98 -160 -137 -40 -39 -76 -68 -80 -65 -31 19 -49 259 -32 419 7 61 15 114 17 118 8 12 22 10 52 -9z m-238 -907 c0 -3 -4 -8 -10 -11 -5 -3 -10 -1 -10 4 0 6 5 11 10 11 6 0 10 -2 10 -4z m-45 -110 c-14 -42 -41 -151 -59 -243 -32 -158 -34 -164 -35 -103 -1 116 28 244 88 384 32 73 35 49 6 -38z"/>
<path d="M8571 6665 c-45 -20 -292 -192 -361 -252 -113 -97 -230 -240 -230 -280 0 -38 45 -73 96 -73 66 0 88 13 213 126 121 111 228 191 239 179 4 -4 8 -113 10 -243 1 -130 4 -247 7 -259 11 -49 143 -116 184 -93 39 20 46 72 46 320 0 201 -4 252 -23 355 -28 149 -48 212 -72 225 -26 14 -69 12 -109 -5z"/>
<path d="M1510 6139 c-30 -5 -91 -27 -135 -48 -257 -127 -426 -403 -412 -671 6 -118 34 -186 106 -259 91 -93 197 -117 237 -55 16 24 15 27 -29 92 -57 84 -70 132 -69 252 2 169 66 349 161 452 42 45 52 51 68 42 17 -10 18 -36 21 -395 4 -454 -12 -966 -33 -1097 -9 -52 -27 -129 -42 -173 -32 -93 -27 -112 31 -117 78 -7 207 95 257 202 62 133 62 135 67 876 2 371 1 703 -3 737 -10 94 -62 158 -135 167 -19 2 -60 0 -90 -5z"/>
<path d="M3993 5963 c-13 -19 -19 -57 -24 -148 -3 -67 -9 -128 -13 -134 -5 -7 -54 -11 -146 -11 -138 0 -140 0 -156 -25 -21 -32 -13 -89 17 -121 21 -23 29 -24 152 -24 l130 0 -7 -152 c-4 -84 -9 -234 -11 -332 l-5 -179 -39 -66 c-48 -81 -156 -199 -146 -161 3 14 9 54 12 90 9 113 -40 206 -198 375 -41 44 -85 96 -97 116 l-22 36 35 97 c43 119 44 146 6 188 -26 29 -34 32 -83 32 -92 -2 -184 -68 -227 -164 -27 -59 -26 -112 3 -183 l24 -58 -43 -82 c-24 -45 -73 -149 -110 -231 -76 -173 -112 -234 -155 -259 -39 -24 -68 -14 -86 29 -20 48 -18 113 17 421 30 268 30 277 13 321 -38 100 -157 173 -255 157 -59 -10 -128 -61 -186 -140 -60 -79 -148 -252 -189 -368 -15 -43 -29 -76 -31 -73 -2 2 1 113 7 245 6 133 8 250 5 261 -15 46 -144 91 -193 68 -48 -23 -50 -49 -58 -590 -6 -459 -6 -506 10 -535 24 -48 66 -66 144 -61 76 5 84 13 111 108 11 36 38 133 61 215 93 329 243 625 306 601 14 -6 16 -17 10 -94 -39 -530 -27 -707 50 -792 31 -34 35 -35 101 -35 90 0 130 20 224 115 69 69 83 91 140 210 114 239 184 373 196 377 15 5 164 -184 204 -261 28 -51 33 -74 36 -141 6 -131 -22 -158 -107 -106 -144 89 -283 89 -290 1 -5 -54 1 -71 35 -109 92 -102 303 -121 462 -41 70 35 235 180 283 249 19 27 38 50 41 51 4 0 12 -21 18 -46 28 -110 91 -202 164 -239 129 -64 299 -3 387 139 19 30 37 56 40 56 3 0 18 -27 33 -60 39 -83 78 -124 155 -162 87 -43 171 -45 248 -5 53 27 153 126 180 179 19 36 25 31 47 -43 24 -78 54 -120 107 -146 135 -69 349 33 399 189 9 27 9 42 1 58 -19 35 -49 24 -109 -39 -31 -33 -66 -62 -79 -66 -33 -10 -69 18 -81 62 -16 57 -13 357 5 625 16 224 16 239 0 263 -32 49 -130 71 -185 42 -24 -12 -35 -26 -45 -61 -6 -16 -13 -12 -56 28 -65 60 -103 76 -188 76 -105 0 -156 -22 -232 -99 -129 -131 -230 -395 -230 -605 0 -49 -6 -70 -36 -125 -55 -99 -110 -151 -163 -151 -29 0 -68 53 -92 128 -18 55 -23 99 -26 252 -6 228 12 590 30 602 6 4 73 8 148 8 122 0 137 2 157 20 16 15 22 32 22 64 0 70 -13 76 -172 76 -96 0 -139 4 -146 13 -7 8 -7 42 -1 101 8 76 7 93 -7 115 -37 59 -101 91 -180 91 -47 0 -56 -3 -71 -27z m1135 -650 c32 -20 64 -95 64 -151 0 -26 -3 -117 -7 -202 l-8 -155 -47 -100 c-76 -160 -120 -205 -199 -205 -35 0 -49 6 -76 33 -39 39 -55 102 -55 220 1 223 65 441 157 530 59 57 114 66 171 30z"/>
<path d="M8961 5823 c-22 -18 -26 -34 -40 -159 l-16 -139 -131 -5 c-158 -6 -168 -11 -162 -82 8 -80 22 -88 155 -88 86 0 115 -3 119 -13 3 -8 -9 -139 -26 -293 -16 -153 -30 -298 -30 -322 0 -37 -6 -49 -45 -91 -25 -27 -73 -63 -108 -82 -53 -28 -74 -34 -147 -37 -82 -4 -90 -2 -224 48 -166 61 -226 74 -328 68 -79 -5 -140 -30 -121 -49 6 -6 58 -16 116 -24 123 -16 205 -46 332 -121 122 -72 194 -91 282 -75 87 16 137 42 199 107 28 30 54 54 56 54 3 0 8 -17 12 -37 15 -93 102 -190 190 -214 56 -15 159 -6 229 21 115 44 227 192 227 302 0 36 -5 50 -19 57 -21 12 -51 -15 -95 -86 -33 -54 -93 -94 -149 -100 -58 -7 -84 9 -110 65 -19 42 -22 64 -21 192 1 128 30 454 52 580 l7 45 135 6 c74 3 142 9 152 13 23 11 41 61 33 93 -14 58 -27 63 -160 63 -86 0 -126 4 -133 13 -7 8 -6 38 4 95 14 78 14 86 -4 115 -42 73 -181 120 -231 80z"/>
<path d="M8004 5335 c-48 -25 -67 -66 -59 -128 9 -68 25 -105 65 -151 36 -41 78 -66 110 -66 36 0 96 49 124 100 33 61 42 178 16 205 -39 38 -207 65 -256 40z"/>
<path d="M8373 5300 c-79 -35 -80 -96 -4 -147 43 -29 113 -31 157 -4 38 23 74 103 57 130 -27 44 -136 55 -210 21z"/>
<path d="M7452 4991 c-120 -6 -125 -7 -148 -34 -13 -15 -24 -39 -24 -53 0 -37 79 -162 128 -203 36 -30 42 -41 42 -74 0 -51 -24 -99 -66 -137 -32 -28 -41 -30 -108 -30 -58 0 -79 -4 -97 -19 -19 -16 -22 -23 -13 -37 22 -37 61 -56 111 -56 67 0 129 29 181 85 23 26 44 47 47 47 3 0 23 -20 46 -45 55 -60 110 -85 186 -85 50 0 65 4 87 25 27 25 34 59 14 71 -6 4 -49 11 -95 14 -92 7 -121 22 -160 80 -16 22 -23 48 -23 79 0 38 6 51 34 81 40 42 121 158 130 187 9 27 -11 69 -40 88 -31 20 -82 24 -232 16z"/>
<path d="M8145 4863 c-55 -7 -180 -35 -200 -45 -30 -16 -75 -60 -75 -75 0 -18 21 -16 76 7 106 46 252 57 427 34 43 -6 47 -5 47 14 0 51 -134 83 -275 65z"/>
<path d="M6675 4848 c-29 -16 -29 -16 -15 -33 9 -11 34 -15 100 -15 104 0 216 -20 322 -57 43 -14 81 -23 85 -20 14 14 -22 57 -63 77 -51 24 -263 60 -349 60 -33 0 -69 -6 -80 -12z"/>
<path d="M6923 4595 c-114 -26 -168 -48 -241 -96 -61 -40 -77 -68 -56 -98 21 -29 33 -27 95 18 112 79 210 116 364 135 96 12 115 28 65 53 -37 19 -112 15 -227 -12z"/>
</g>
</svg>