<?xml version="1.0" encoding="utf-8"?>
<svg version="1.2" xmlns="http://www.w3.org/2000/svg" width="26" height="24" viewBox="8.376 7.726 11.263 8.539">
  <title>InstaCat</title>
  <style>
		.s0 { fill: #000000 } 
	</style>
  <g transform="matrix(1, 0, 0, 1, -7, -5.044683)">
    <path class="s0" d="m17.51 13.02q-0.12 0.06-0.17 0.26c-0.06 0.25-0.16 1.11-0.16 1.36 0 0.32 0 0.32-0.32 0.64-0.34 0.34-0.56 0.69-0.72 1.16q-0.54 1.52 0.15 2.74c0.18 0.31 0.51 0.74 0.75 0.98q0.68 0.66 1.78 0.84c0.3 0.05 0.97 0.06 1.23 0.02 0.43-0.07 0.97-0.28 1.28-0.49 0.29-0.2 0.86-0.83 1-1.09 0.06-0.14 0.09-0.28 0.05-0.32-0.07-0.09-0.16-0.04-0.44 0.23-0.59 0.56-0.98 0.82-1.53 0.98-0.22 0.07-0.28 0.08-0.64 0.08-0.45 0-0.62-0.04-0.94-0.2-0.3-0.14-0.62-0.48-0.8-0.85-0.32-0.63-0.33-1.59-0.04-2.46 0.19-0.57 0.42-0.95 0.83-1.34 0.43-0.42 0.76-0.61 1.29-0.74 0.44-0.11 0.55-0.11 0.63-0.01 0.06 0.07 0.07 0.09 0.05 0.32-0.01 0.2-0.02 0.28-0.11 0.48-0.11 0.27-0.12 0.38-0.04 0.4 0.09 0.03 0.26-0.03 0.43-0.17 0.34-0.25 0.46-0.5 0.46-0.93 0.01-0.22 0-0.28-0.05-0.39-0.14-0.27-0.44-0.44-0.83-0.47-0.24-0.01-0.48 0.03-0.97 0.17l-0.31 0.09-0.31-0.32c-0.33-0.33-0.61-0.56-0.94-0.75-0.33-0.19-0.5-0.26-0.61-0.22zm0.5 0.85c0.18 0.12 0.52 0.4 0.64 0.54l0.14 0.16-0.24 0.18c-0.13 0.1-0.32 0.26-0.43 0.37-0.1 0.1-0.2 0.18-0.21 0.17-0.09-0.05-0.13-0.69-0.09-1.12 0.02-0.17 0.04-0.31 0.05-0.32q0.02-0.05 0.14 0.02zm-0.64 2.44q0 0.01-0.03 0.03-0.02 0.01-0.02-0.02 0-0.02 0.02-0.03 0.03 0.01 0.03 0.02zm-0.12 0.29c-0.04 0.11-0.11 0.41-0.16 0.65-0.09 0.43-0.09 0.44-0.09 0.28q-0.01-0.47 0.23-1.03c0.09-0.2 0.1-0.13 0.02 0.1z"/>
    <path class="s0" d="m23.51 13.04c-0.12 0.05-0.78 0.51-0.97 0.67-0.3 0.26-0.61 0.65-0.61 0.75 0 0.11 0.12 0.2 0.25 0.2 0.18 0 0.24-0.03 0.57-0.34 0.33-0.3 0.62-0.51 0.64-0.48 0.02 0.01 0.03 0.31 0.03 0.65 0 0.35 0.01 0.67 0.02 0.7 0.03 0.13 0.38 0.31 0.49 0.25 0.11-0.06 0.13-0.2 0.13-0.86 0-0.54-0.01-0.68-0.06-0.95-0.08-0.4-0.13-0.57-0.2-0.61q-0.12-0.05-0.29 0.02z"/>
    <path class="s0" d="m24.56 15.3c-0.06 0.04-0.07 0.09-0.11 0.42l-0.04 0.37-0.36 0.02c-0.42 0.01-0.45 0.03-0.43 0.22 0.02 0.21 0.06 0.23 0.42 0.23 0.23 0 0.3 0.01 0.31 0.04 0.01 0.02-0.02 0.37-0.07 0.78-0.04 0.41-0.08 0.8-0.08 0.87 0 0.1-0.01 0.13-0.12 0.24-0.06 0.07-0.19 0.17-0.29 0.22-0.14 0.08-0.19 0.09-0.39 0.1-0.22 0.01-0.24 0-0.6-0.13-0.45-0.16-0.61-0.2-0.88-0.18-0.21 0.01-0.37 0.08-0.32 0.13 0.01 0.02 0.15 0.04 0.31 0.06 0.33 0.05 0.55 0.13 0.89 0.33 0.32 0.19 0.52 0.24 0.75 0.2 0.24-0.04 0.37-0.11 0.54-0.29 0.07-0.08 0.14-0.14 0.15-0.14q0.01 0.01 0.03 0.1c0.04 0.25 0.27 0.51 0.51 0.57 0.15 0.04 0.42 0.02 0.61-0.06 0.31-0.11 0.61-0.51 0.61-0.81q0-0.13-0.05-0.15-0.08-0.05-0.26 0.23c-0.08 0.15-0.24 0.25-0.39 0.27-0.16 0.02-0.23-0.02-0.3-0.17-0.05-0.12-0.06-0.18-0.06-0.52 0.01-0.34 0.08-1.22 0.14-1.55l0.02-0.12 0.36-0.02c0.2-0.01 0.38-0.02 0.41-0.03 0.06-0.03 0.11-0.17 0.09-0.25-0.04-0.16-0.07-0.17-0.43-0.17q-0.34 0-0.36-0.04-0.02-0.03 0.02-0.25c0.03-0.21 0.03-0.23-0.02-0.31-0.11-0.2-0.48-0.32-0.61-0.21z"/>
    <path class="s0" d="m21.99 16.6q-0.19 0.1-0.16 0.35c0.03 0.18 0.07 0.28 0.18 0.4q0.15 0.17 0.29 0.18c0.1 0 0.26-0.13 0.33-0.27 0.09-0.16 0.12-0.48 0.05-0.55-0.11-0.1-0.56-0.17-0.69-0.11z"/>
    <path class="s0" d="m22.98 16.7c-0.21 0.09-0.22 0.25-0.01 0.39 0.11 0.08 0.3 0.08 0.42 0.01 0.1-0.06 0.2-0.27 0.15-0.35-0.07-0.11-0.36-0.14-0.56-0.05z"/>
    <path class="s0" d="m20.51 17.53c-0.32 0.01-0.33 0.01-0.4 0.09q-0.05 0.07-0.06 0.14c0 0.1 0.21 0.43 0.34 0.54 0.1 0.08 0.12 0.11 0.12 0.2q-0.01 0.21-0.18 0.37c-0.09 0.07-0.11 0.08-0.29 0.08-0.16 0-0.21 0.01-0.26 0.05q-0.07 0.05-0.04 0.1 0.1 0.15 0.3 0.15 0.27 0 0.49-0.23 0.1-0.11 0.12-0.13 0.02 0.02 0.13 0.13 0.2 0.23 0.49 0.22c0.14 0 0.18-0.01 0.24-0.06 0.07-0.07 0.09-0.16 0.04-0.19-0.02-0.01-0.14-0.03-0.26-0.04-0.25-0.02-0.32-0.06-0.43-0.22q-0.06-0.08-0.06-0.21c0-0.1 0.02-0.13 0.09-0.21 0.11-0.12 0.33-0.43 0.35-0.51 0.02-0.07-0.03-0.18-0.11-0.23-0.08-0.06-0.22-0.07-0.62-0.04z"/>
    <path class="s0" d="m22.37 17.87c-0.15 0.02-0.48 0.09-0.54 0.12-0.08 0.04-0.2 0.16-0.2 0.2q-0.01 0.07 0.2-0.02 0.44-0.18 1.15-0.09c0.11 0.02 0.13 0.01 0.13-0.04 0-0.13-0.36-0.22-0.74-0.17z"/>
    <path class="s0" d="m18.43 17.91c-0.08 0.04-0.08 0.04-0.04 0.09 0.02 0.03 0.09 0.04 0.27 0.04q0.42 0 0.86 0.15c0.11 0.04 0.22 0.06 0.23 0.05 0.03-0.03-0.06-0.15-0.17-0.2-0.14-0.07-0.71-0.16-0.94-0.16-0.09 0-0.18 0.01-0.21 0.03z"/>
    <path class="s0" d="m19.09 18.59c-0.3 0.07-0.45 0.13-0.64 0.25q-0.24 0.16-0.15 0.27c0.05 0.07 0.08 0.07 0.25-0.05 0.3-0.21 0.56-0.31 0.98-0.36q0.38-0.05 0.17-0.15-0.15-0.07-0.61 0.04z"/>
  </g>
</svg>