<svg version="1.0" xmlns="http://www.w3.org/2000/svg"
 viewBox="0 0 224.000000 225.000000"
 preserveAspectRatio="xMidYMid meet">

<g transform="translate(0.000000,225.000000) scale(0.100000,-0.100000)"
fill="#000000" stroke="none">
<path d="M975 2239 c-231 -29 -467 -144 -635 -309 -220 -215 -333 -488 -332
-800 1 -260 67 -436 260 -691 l72 -96 10 -101 c11 -120 25 -157 73 -199 67
-59 148 -55 301 14 l79 36 126 -9 c348 -24 554 5 751 107 359 186 590 629 549
1056 -12 136 -48 255 -114 388 -210 422 -665 663 -1140 604z m366 -218 c266
-69 480 -243 604 -490 89 -178 112 -407 62 -602 -65 -251 -229 -465 -431 -564
-170 -84 -307 -104 -572 -85 -99 7 -201 10 -225 6 -24 -4 -80 -22 -124 -41
-44 -19 -85 -35 -91 -35 -7 0 -14 33 -18 84 -4 46 -11 97 -15 113 -5 16 -45
77 -89 135 -44 59 -101 142 -127 185 -137 234 -147 530 -24 791 129 278 390
474 694 522 89 13 268 4 356 -19z"/>
<path d="M882 1393 c-38 -19 -46 -29 -217 -302 -114 -182 -126 -206 -116 -227
19 -43 52 -31 205 80 167 121 179 128 203 119 10 -4 70 -48 133 -97 169 -133
196 -143 276 -107 37 17 56 43 193 256 161 251 172 277 116 291 -19 5 -53 -14
-176 -101 -159 -111 -184 -126 -209 -117 -8 3 -68 48 -135 100 -160 126 -199
142 -273 105z"/>
</g>
</svg>
