<?xml version="1.0" standalone="no"?>
<!DOCTYPE svg PUBLIC "-//W3C//DTD SVG 20010904//EN"
 "http://www.w3.org/TR/2001/REC-SVG-20010904/DTD/svg10.dtd">
<svg version="1.0" xmlns="http://www.w3.org/2000/svg"
 width="840.000000pt" height="513.000000pt" viewBox="0 0 840.000000 513.000000"
 preserveAspectRatio="xMidYMid meet">

<g transform="translate(0.000000,513.000000) scale(0.100000,-0.100000)"
fill="#000000" stroke="none">
<path d="M1883 4710 c-99 -20 -185 -95 -223 -196 -54 -144 16 -312 159 -378
l46 -21 2335 0 2335 0 46 21 c60 28 125 93 152 153 16 34 22 66 22 121 0 128
-60 224 -175 279 l-55 26 -2300 1 c-1265 1 -2319 -2 -2342 -6z"/>
<path d="M1845 2847 c-132 -52 -200 -149 -199 -287 0 -124 55 -215 164 -272
l45 -23 2345 0 2345 0 48 25 c103 52 162 150 162 270 0 120 -59 218 -162 270
l-48 25 -2335 2 c-1774 1 -2342 -1 -2365 -10z"/>
<path d="M1845 992 c-173 -60 -250 -246 -172 -415 30 -66 77 -113 147 -146
l55 -26 2325 0 2325 0 52 24 c69 31 134 102 163 177 54 144 -16 312 -159 378
l-46 21 -2320 2 c-2180 2 -2323 1 -2370 -15z"/>
</g>
</svg>
