<svg version="1.1" id="Layer_1" xmlns="http://www.w3.org/2000/svg" xmlns:xlink="http://www.w3.org/1999/xlink" x="0px" y="0px"
	 width="100%" viewBox="0 0 225 225" enable-background="new 0 0 225 225" xml:space="preserve">
<path fill="#FDFDFD" opacity="1.000000" stroke="none" 
	d="
M1.000000,89.000000 
	C1.000000,59.333340 1.000000,30.166677 1.000000,1.000012 
	C75.999977,1.000008 150.999954,1.000008 225.999954,1.000004 
	C225.999969,75.999969 225.999969,150.999939 225.999985,225.999939 
	C151.000046,225.999954 76.000092,225.999954 1.000068,225.999969 
	C1.000000,180.500000 1.000000,135.000000 1.000000,89.000000 
M88.184074,211.404022 
	C98.747940,212.492142 109.323830,214.588669 119.873215,214.462799 
	C143.342102,214.182800 163.920593,206.386932 179.389221,187.787888 
	C200.159103,162.814758 195.267014,126.041939 168.374359,110.033371 
	C161.680450,106.048653 158.845718,101.799744 157.724823,94.282837 
	C154.986847,75.921852 143.345123,63.904408 125.639374,60.546764 
	C119.686584,59.417904 113.272491,59.357883 107.260658,60.190861 
	C95.114746,61.873745 85.230576,67.765045 78.265068,78.520866 
	C83.265587,81.949081 87.872360,85.107368 92.424751,88.228355 
	C102.408630,77.282639 116.367249,74.160400 128.467865,79.904716 
	C135.771774,83.371964 141.120377,92.232147 140.224045,99.481606 
	C138.916031,99.323013 137.608551,99.154694 136.298737,99.007195 
	C122.916718,97.500145 109.654152,97.507011 96.967979,102.840782 
	C74.480644,112.295372 68.751007,139.939926 85.671188,156.134689 
	C102.213631,171.967896 140.500412,172.071732 153.092209,143.364105 
	C155.645996,137.541763 157.140366,131.254745 159.116226,125.203094 
	C167.051392,129.485641 172.482681,136.998001 173.978821,145.663681 
	C176.977921,163.034286 169.463058,175.763657 156.008301,185.599045 
	C141.617065,196.119003 124.943314,197.806366 107.873848,196.642410 
	C77.151054,194.547470 57.009041,178.473648 48.658676,149.421799 
	C42.267395,127.185783 42.090481,104.627151 47.397575,82.213089 
	C53.209400,57.667301 66.743637,39.358780 92.381760,33.170341 
	C101.792419,30.898829 111.871941,30.060289 121.553696,30.519945 
	C143.819382,31.577032 162.695206,40.049789 174.685135,59.918030 
	C178.502777,66.244171 181.080200,73.318748 184.422607,80.473610 
	C189.419525,79.155777 194.807007,77.734947 200.573227,76.214226 
	C196.552460,61.419266 190.121750,48.471989 179.841248,37.637390 
	C161.019012,17.800650 137.039795,11.643345 110.750191,12.406588 
	C70.115067,13.586311 41.693172,35.743576 31.384401,74.393982 
	C24.235058,101.198822 24.243999,128.195526 32.047714,154.845398 
	C40.385601,183.319458 58.034393,203.126205 88.184074,211.404022 
z"/>
<path fill="#040404" opacity="1.000000" stroke="none" 
	d="
M87.789238,211.295074 
	C58.034393,203.126205 40.385601,183.319458 32.047714,154.845398 
	C24.243999,128.195526 24.235058,101.198822 31.384401,74.393982 
	C41.693172,35.743576 70.115067,13.586311 110.750191,12.406588 
	C137.039795,11.643345 161.019012,17.800650 179.841248,37.637390 
	C190.121750,48.471989 196.552460,61.419266 200.573227,76.214226 
	C194.807007,77.734947 189.419525,79.155777 184.422607,80.473610 
	C181.080200,73.318748 178.502777,66.244171 174.685135,59.918030 
	C162.695206,40.049789 143.819382,31.577032 121.553696,30.519945 
	C111.871941,30.060289 101.792419,30.898829 92.381760,33.170341 
	C66.743637,39.358780 53.209400,57.667301 47.397575,82.213089 
	C42.090481,104.627151 42.267395,127.185783 48.658676,149.421799 
	C57.009041,178.473648 77.151054,194.547470 107.873848,196.642410 
	C124.943314,197.806366 141.617065,196.119003 156.008301,185.599045 
	C169.463058,175.763657 176.977921,163.034286 173.978821,145.663681 
	C172.482681,136.998001 167.051392,129.485641 159.116226,125.203094 
	C157.140366,131.254745 155.645996,137.541763 153.092209,143.364105 
	C140.500412,172.071732 102.213631,171.967896 85.671188,156.134689 
	C68.751007,139.939926 74.480644,112.295372 96.967979,102.840782 
	C109.654152,97.507011 122.916718,97.500145 136.298737,99.007195 
	C137.608551,99.154694 138.916031,99.323013 140.224045,99.481606 
	C141.120377,92.232147 135.771774,83.371964 128.467865,79.904716 
	C116.367249,74.160400 102.408630,77.282639 92.424751,88.228355 
	C87.872360,85.107368 83.265587,81.949081 78.265068,78.520866 
	C85.230576,67.765045 95.114746,61.873745 107.260658,60.190861 
	C113.272491,59.357883 119.686584,59.417904 125.639374,60.546764 
	C143.345123,63.904408 154.986847,75.921852 157.724823,94.282837 
	C158.845718,101.799744 161.680450,106.048653 168.374359,110.033371 
	C195.267014,126.041939 200.159103,162.814758 179.389221,187.787888 
	C163.920593,206.386932 143.342102,214.182800 119.873215,214.462799 
	C109.323830,214.588669 98.747940,212.492142 87.789238,211.295074 
M105.966713,118.224258 
	C103.157814,119.939957 99.951805,121.237236 97.617340,123.452827 
	C91.548271,129.212860 92.048340,138.161606 98.342392,143.673859 
	C109.364822,153.327179 130.332352,149.825424 136.751831,136.739548 
	C139.511841,131.113358 140.540985,124.638084 142.342819,118.594383 
	C132.517868,115.410789 116.880325,115.320892 105.966713,118.224258 
z"/>
<path fill="#FAFAFA" opacity="1.000000" stroke="none" 
	d="
M106.351639,118.121597 
	C116.880325,115.320892 132.517868,115.410789 142.342819,118.594383 
	C140.540985,124.638084 139.511841,131.113358 136.751831,136.739548 
	C130.332352,149.825424 109.364822,153.327179 98.342392,143.673859 
	C92.048340,138.161606 91.548271,129.212860 97.617340,123.452827 
	C99.951805,121.237236 103.157814,119.939957 106.351639,118.121597 
z"/>
</svg>