<?xml version="1.0" standalone="no"?>
<!DOCTYPE svg PUBLIC "-//W3C//DTD SVG 20010904//EN"
 "http://www.w3.org/TR/2001/REC-SVG-20010904/DTD/svg10.dtd">
<svg version="1.0" xmlns="http://www.w3.org/2000/svg"
 width="512.000000pt" height="512.000000pt" viewBox="0 0 512 512"
 preserveAspectRatio="xMidYMid meet">
  <g fill="#000000" stroke="none" transform="scale(21.333333)">
    <!-- Zoom-in icon from your first SVG, scaled to fill 512x512 -->
    <path d="m22.707 21.293-4.825-4.825a9.519 9.519 0 1 0-1.414 1.414l4.825 4.825a1 1 0 0 0 1.414-1.414ZM10.5 18.001a7.5 7.5 0 1 1 7.5-7.5 7.509 7.509 0 0 1-7.5 7.5Zm3.5-8.5h-2.5v-2.5a1 1 0 1 0-2 0v2.5H7a1 1 0 1 0 0 2h2.5v2.5a1 1 0 0 0 2 0v-2.5H14a1 1 0 0 0 0-2Z"/>
  </g>
</svg>
